<svg xmlns="http://www.w3.org/2000/svg" width="295.24" height="141.149" viewBox="0 0 295.24 141.149">
  <g id="Group_9" data-name="Group 9" transform="translate(-79.874 -102.581)">
    <path id="Path_1" data-name="Path 1" d="M215.8,140h23.876l43.033-19.585V102.581Z" fill="#f2b737"/>
    <text id="Tribunal" transform="translate(273.874 179.128)" fill="#1d1d1b" font-size="42.345" font-family="LucidaFax-Demi, Lucida Fax" font-weight="300"><tspan x="-193.366" y="0">Tribunal</tspan></text>
    <text id="DO_MUNICÍPIO_DE_SÃO_PAULO" data-name="DO MUNICÍPIO DE SÃO PAULO" transform="translate(112.113 238.73)" fill="#1d1d1b" font-size="18.12" font-family="NirmalaUI-Bold, Nirmala UI" font-weight="700"><tspan x="0" y="0">DO MUNICÍPIO DE SÃO PAULO</tspan></text>
    <path id="Path_2" data-name="Path 2" d="M282.711,120.416l89.582,41.738-1.23-10.16-88.351-49.414Z" fill="#e32435"/>
    <path id="Path_3" data-name="Path 3" d="M282.711,157.171l71.9,20.206-.154-7.136-71.743-23.494Z" fill="#008d36"/>
    <path id="Path_4" data-name="Path 4" d="M284.507,171.833l-1.8-.447v43.008H292.4v-40.81l-5.045-1.106" fill="#29235c"/>
    <path id="Path_5" data-name="Path 5" d="M326.632,214.394h3.392l-2.453-33.1-2.775-.713h0l-2.467-.843h0l-2.96-.778,1.2,35.369,3.824.065h2.239" fill="#662482"/>
    <text id="de_Contas" data-name="de Contas" transform="translate(273.874 214.393)" fill="#1d1d1b" font-size="38.763" font-family="NirmalaUI-Semilight, Nirmala UI" font-weight="300"><tspan x="-167.866" y="0">de Contas</tspan></text>
  </g>
</svg>
